<svg width="34" height="34" viewBox="0 0 34 34" fill="none" xmlns="http://www.w3.org/2000/svg"><path fill-rule="evenodd" clip-rule="evenodd" d="M6.19106 20.1401C4.05262 18.6627 2.65625 16.2267 2.65625 13.4717C2.65625 8.96552 6.39223 5.3125 11.0008 5.3125C13.3557 5.3125 15.4828 6.26635 17 7.80049C18.5172 6.26635 20.6443 5.3125 22.9993 5.3125C27.6079 5.3125 31.3438 8.96552 31.3438 13.4717C31.3438 16.0307 30.1391 18.3144 28.254 19.8104L19.0819 28.0679C18.0133 29.03 16.3946 29.0426 15.3112 28.0973L6.19106 20.1401ZM13.998 13.5547C13.998 15.4514 12.5045 16.9889 10.6622 16.9889C8.81995 16.9889 7.32648 15.4514 7.32648 13.5547C7.32648 11.658 8.81995 10.1205 10.6622 10.1205C12.5045 10.1205 13.998 11.658 13.998 13.5547Z" fill="#E5E5E5"/></svg>